# xmcd
#
# Track frame offsets:
#	150
#	12465
#	24817
#	39000
#	53692
#	67342
#	82060
#	95970
#	108740
#	122950
#	137302
#	150207
#
# Disc length: 2180 seconds
#
# Revision: 0
# Processed by: cddbd v1.5.2PL0 Copyright (c) Steve Scherf et al.
# Submitted via: EasyCDDAExtractor 16.0.6.1
#
DISCID=9708820c
DTITLE=Νικολαΐδης Απόστολος  - Όταν καπνίζει ο λουλάς-Απ. Νικολαΐδης
DYEAR=1994
DGENRE=Ρεμπέτικη
TTITLE0=Όταν καπνίζει ο λουλάς
TTITLE1=Μάγκας βγήκε για σεργιάνι
TTITLE2=Μάς κυνηγούν τον αργιλέ
TTITLE3=Βάλτε μου δυό καναβουριές
TTITLE4=Όταν συμβεί στα πέριξ
TTITLE5=Μέσ' στης πόλης το χαμάμ
TTITLE6=Τη ζούλα μου ανακάλυψαν
TTITLE7=Μπουκάραν μάγκες στον τεκέ
TTITLE8=Βαδίζω και παραμιλώ
TTITLE9=Απ' τον καιρό που άρχισα
TTITLE10=Αν μ' αξιώσει ο Θεός
TTITLE11=Η καπνουλού
EXTD=
EXTT0=
EXTT1=
EXTT2=
EXTT3=
EXTT4=
EXTT5=
EXTT6=
EXTT7=
EXTT8=
EXTT9=
EXTT10=
EXTT11=
PLAYORDER=
